<?xml version="1.0" encoding="UTF-8"?>
<svg id="Layer_2" data-name="Layer 2" xmlns="http://www.w3.org/2000/svg" viewBox="0 0 427.64 238.48">
  <defs>
    <style>
      .cls-1 {
        fill: #67707f;
      }

      .cls-2 {
        fill: #31363e;
      }

      .cls-3 {
        fill: #15181d;
      }

      .cls-4 {
        fill: #31353e;
      }

      .cls-5 {
        fill: #454c56;
      }
    </style>
  </defs>
  <g id="Layer_1-2" data-name="Layer 1">
    <g>
      <path class="cls-3" d="M212.68,238.48c-47.77-.52-96.32-4.35-143.63-17.92-17.01-4.88-33.52-11.04-48.3-21.06-5.83-3.95-11.03-8.61-15.08-14.42C1.83,179.58,0,173.47,0,166.77c.02-31.81,0-63.62,0-95.44,0-8.79,3.44-16.15,9.31-22.51,10.22-11.06,23.3-17.61,36.97-23.08,28.66-11.47,58.71-17.23,89.18-20.98C181.76-.93,228.17-1.48,274.59,2.89c38.23,3.6,75.97,9.79,111.64,24.93,10.46,4.44,20.36,9.89,28.79,17.69,8.38,7.75,12.74,16.96,12.61,28.69-.33,29.98-.34,59.96,0,89.94,.13,11.73-4.13,20.98-12.52,28.73-9.71,8.97-21.26,14.85-33.36,19.69-31.19,12.46-63.93,18.26-97.09,22.04-23.52,2.68-47.15,3.65-71.99,3.87ZM67.79,32.89c-5.63,2-11.4,3.69-16.86,6.08-11.28,4.94-22.64,9.85-31.19,19.28-7.45,8.22-7.47,16.26,.21,24.22,2.3,2.38,4.8,4.64,7.46,6.6,12.11,8.92,25.98,14.16,40.15,18.56,42.79,13.26,86.94,17.44,131.42,18.83,24.3,.76,48.57-.41,72.8-2.58,25.39-2.28,50.54-5.92,75.17-12.49,19.01-5.07,37.8-10.99,53.93-22.84,5.43-3.99,11.02-8.26,11.91-15.85,1.28-1.04,.88-2.35,.65-3.67-1.28-7.25-6.03-12.12-11.56-16.24-13.81-10.27-29.64-16.32-45.98-21.05-28.44-8.23-57.5-12.98-87.02-15.16-23.33-1.72-46.6-2.81-70.05-2.2-27.93,.73-55.62,3.01-83.16,7.41-16.2,2.59-32.19,6.22-47.88,11.08Zm119.07,148.97c0,12.49,.08,24.98-.05,37.46-.03,3.21,.98,5.85,4.27,5.1,5.06-1.16,9.87,.43,14.8,.3,3.03-.08,4.03-1.01,4.02-4.05-.09-25.31-.11-50.62,.01-75.93,.02-3.45-1.34-4.23-4.44-4.14-4.65,.13-9.45,.54-13.92-.4-4.43-.93-4.76,.74-4.73,4.2,.1,12.49,.04,24.98,.04,37.46Zm31.01,.3c0,12.65,.1,25.3-.07,37.95-.05,3.43,.93,4.59,4.48,4.63,4.59,.06,9.04-1.53,13.8-.39,2.98,.71,4.91-1.34,4.82-5.14-.26-10.48-.09-20.97-.09-31.46,0-14.32,.02-28.63-.02-42.95,0-2.2,.56-5.51-3.12-4.77-5.16,1.03-10.29,.55-15.41,.52-3.58-.02-4.52,1.25-4.47,4.65,.16,12.32,.06,24.64,.06,36.95Zm-100.99-7.46c0-12.48,.01-24.96-.01-37.44,0-2.05,.61-4.27-2.85-4.65-4.91-.54-9.78-1.57-14.62-2.64-4.05-.9-5.61,.08-5.58,4.61,.19,24.46,.18,48.92,0,73.37-.03,3.66,1.37,5.06,4.59,5.64,4.56,.81,9.15,1.53,13.62,2.68,3.95,1.02,4.97-.34,4.92-4.14-.16-12.48-.06-24.96-.06-37.44Zm193.96-.03c0,12.65,.05,25.3-.04,37.95-.02,2.89,.63,4.6,3.92,3.87,5.17-1.15,10.3-2.47,15.51-3.4,2.91-.52,3.65-1.88,3.64-4.69-.1-24.8-.14-49.61,.02-74.41,.03-4.21-1.84-4.77-5.18-4.1-4.54,.91-9.04,2.18-13.63,2.63-3.64,.35-4.31,2.07-4.29,5.2,.1,12.32,.04,24.64,.04,36.96Zm-154.93,4.99c0,12.32,.21,24.65-.11,36.96-.12,4.57,1.9,5.88,5.79,6,3.98,.13,8.08-.24,11.92,.57,4.3,.91,5.4-.53,5.37-4.45-.09-11.32-.03-22.64-.03-33.97,0-13.32,0-26.64,0-39.96,0-2.33,.34-5.02-3.15-5.09-5.14-.11-10.18-1.27-15.37-1.18-3.59,.07-4.52,1.25-4.48,4.66,.16,12.15,.06,24.31,.07,36.46Zm-70.03-11.49c0-10.82,.08-21.63-.02-32.45-.08-9.1,1.62-8-7.94-10.54-3.2-.85-6.37-1.84-9.55-2.78-4.89-1.44-5.43-1.06-5.44,4.12-.02,20.47,0,40.93,0,61.4q0,17.04,16.69,21.13c.32,.08,.62,.25,.94,.33,3.66,.93,5.5,.15,5.41-4.27-.25-12.31-.09-24.62-.09-36.94Zm61.99,11.01c0-12.64-.1-25.29,.07-37.93,.04-3.41-.91-4.67-4.47-4.66-4.28,0-8.69-.22-12.8-1.3-4.17-1.09-4.91,.22-4.87,3.96,.13,12.98,.05,25.95,.05,38.93,0,11.98-.03,23.96,.04,35.94,0,1.65-.86,4.01,1.88,4.43,5.23,.8,10.48,1.39,15.72,2.12,3.61,.51,4.5-1.17,4.46-4.55-.16-12.31-.06-24.62-.06-36.94Zm153.99-1.99c0-12.81,.01-25.61-.01-38.42,0-1.93,.47-4.33-2.83-3.93-5.24,.64-10.49,1.26-15.73,1.95-2.59,.34-3.5,1.87-3.5,4.49,.07,25.11,.07,50.23-.01,75.34,0,2.95,.81,4.18,3.95,4.09,4.84-.14,9.48-1.56,14.24-1.89,3.54-.24,3.97-1.8,3.94-4.71-.11-12.31-.04-24.62-.05-36.92Zm-53,3.72c0,12.66,0,25.31,0,37.97,0,2.48,.14,5.34,3.5,4.55,4.48-1.06,8.94-.54,13.4-.8,3.86-.22,7.1-.81,5.2-6.07-.43-1.18-.09-2.64-.09-3.97,0-22.98-.09-45.96,.08-68.94,.03-3.92-1.05-5.14-5.05-5.12-4.36,.02-8.56,1.33-12.87,1.08-3.34-.2-4.27,1.14-4.24,4.34,.15,12.32,.06,24.64,.06,36.97Zm114.96-17.3c0-12.63-.05-25.27,.04-37.9,.02-3.26-.72-4.68-4.34-3.46-4.86,1.63-9.81,3.04-14.81,4.2-2.28,.53-2.93,1.52-2.92,3.7,.05,25.76,.05,51.53,0,77.29,0,2.66,.93,3.07,3.29,2.34,4.74-1.47,9.49-3.03,14.35-3.99,3.55-.7,4.51-2.38,4.47-5.78-.16-12.13-.06-24.27-.06-36.4Zm-308.91-4.11c0-12.47-.08-24.93,.06-37.4,.03-2.7-.65-4.23-3.34-5.16-4.69-1.62-9.56-3.1-13.79-5.6-5.08-2.99-5-.48-4.99,3.41,.07,23.27,.19,46.54-.09,69.81-.06,4.97,1.54,7.63,6.08,9.32,3.86,1.43,7.46,3.56,11.2,5.34,4.48,2.13,4.86,1.89,4.87-3.31,.02-12.13,0-24.27,0-36.4Zm317.87-.4c0,10.98,0,21.96,0,32.94,0,9.6-.31,8.74,8.83,5.5,10.78-3.82,14.1-10.07,13.51-21.42-1.07-20.57-.29-41.24-.31-61.87,0-5.14-.37-5.39-5.02-3.01-4.01,2.05-8.12,3.83-12.41,5.15-3.47,1.06-4.8,2.93-4.7,6.79,.3,11.97,.11,23.95,.11,35.93ZM23.28,183.15c1.11-1.85,.6-3.52,.61-5.1,.04-21.77-.48-43.55,.29-65.29,.3-8.41-3.82-11.97-10.27-15.59,0,23.8-.13,47.05,.08,70.3,.06,6.69,4.02,11.58,9.29,15.67Zm380.49,.41c7.81-6.29,10-10.78,10.01-19.44,0-17.49,0-34.98,0-52.47,0-3.66,.04-7.33-.03-10.99-.02-1.01,.48-2.56-1.46-2.49-2.48,.09-8.5,6.57-8.5,9.23-.03,12.16-.01,24.32-.01,36.48,0,12.95,0,25.9,0,39.68Z"/>
      <path class="cls-5" d="M67.79,32.89c15.69-4.86,31.68-8.5,47.88-11.08,27.53-4.4,55.23-6.68,83.16-7.41,23.45-.61,46.73,.48,70.05,2.2,29.52,2.18,58.58,6.93,87.02,15.16,16.34,4.73,32.17,10.78,45.98,21.05,5.53,4.11,10.28,8.99,11.56,16.24,.23,1.32,.63,2.63-.65,3.67-10.33,8.74-22.63,13.75-35.18,18.12-19.61,6.82-39.85,10.96-60.36,14.08-21.48,3.27-43.08,5.1-64.75,5.64-22.23,.55-44.48,.52-66.7-1.67-11.36-1.12-22.77-1.91-34.06-3.5-18.19-2.56-36.19-6.23-53.78-11.67-14-4.33-27.77-9.3-39.77-17.94-5.35-3.85-10.88-8.03-12.23-15.12-1.65-8.66,3.83-13.8,9.66-18.86,3.83-3.32,9.08-4.63,12.17-8.89Z"/>
      <path class="cls-1" d="M67.79,32.89c-3.1,4.26-8.34,5.57-12.17,8.89-5.84,5.06-11.31,10.2-9.66,18.86,1.35,7.1,6.88,11.27,12.23,15.12,12,8.64,25.77,13.61,39.77,17.94,17.59,5.44,35.59,9.11,53.78,11.67,11.29,1.59,22.7,2.38,34.06,3.5,22.22,2.19,44.47,2.22,66.7,1.67,21.67-.53,43.27-2.37,64.75-5.64,20.52-3.12,40.75-7.26,60.36-14.08,12.55-4.37,24.84-9.38,35.18-18.12-.89,7.59-6.49,11.86-11.91,15.85-16.13,11.85-34.92,17.77-53.93,22.84-24.63,6.57-49.79,10.2-75.17,12.49-24.23,2.18-48.5,3.34-72.8,2.58-44.49-1.39-88.63-5.57-131.42-18.83-14.17-4.39-28.05-9.64-40.15-18.56-2.66-1.96-5.16-4.21-7.46-6.6-7.68-7.97-7.66-16.01-.21-24.22,8.55-9.43,19.91-14.34,31.19-19.28,5.46-2.39,11.23-4.08,16.86-6.08Z"/>
      <path class="cls-2" d="M186.86,181.86c0-12.49,.06-24.98-.04-37.46-.03-3.46,.29-5.14,4.73-4.2,4.47,.94,9.27,.53,13.92,.4,3.09-.08,4.45,.69,4.44,4.14-.12,25.31-.11,50.62-.01,75.93,.01,3.05-.99,3.97-4.02,4.05-4.93,.13-9.73-1.46-14.8-.3-3.29,.76-4.31-1.88-4.27-5.1,.13-12.49,.05-24.98,.05-37.46Z"/>
      <path class="cls-4" d="M217.86,182.16c0-12.32,.1-24.64-.06-36.95-.05-3.4,.89-4.67,4.47-4.65,5.12,.03,10.25,.51,15.41-.52,3.69-.74,3.11,2.58,3.12,4.77,.05,14.32,.02,28.63,.02,42.95,0,10.49-.17,20.98,.09,31.46,.09,3.79-1.84,5.85-4.82,5.14-4.77-1.14-9.21,.45-13.8,.39-3.55-.04-4.53-1.21-4.48-4.63,.17-12.65,.07-25.3,.07-37.95Z"/>
      <path class="cls-4" d="M116.87,174.69c0,12.48-.1,24.96,.06,37.44,.05,3.79-.97,5.16-4.92,4.14-4.47-1.16-9.06-1.87-13.62-2.68-3.22-.57-4.62-1.98-4.59-5.64,.19-24.46,.2-48.92,0-73.37-.04-4.52,1.53-5.5,5.58-4.61,4.83,1.07,9.71,2.11,14.62,2.64,3.46,.38,2.84,2.59,2.85,4.65,.03,12.48,.01,24.96,.02,37.44Z"/>
      <path class="cls-2" d="M310.83,174.66c0-12.32,.06-24.64-.04-36.96-.03-3.14,.64-4.85,4.29-5.2,4.58-.44,9.09-1.72,13.63-2.63,3.34-.67,5.2-.11,5.18,4.1-.16,24.8-.12,49.61-.02,74.41,.01,2.82-.72,4.18-3.64,4.69-5.21,.93-10.34,2.25-15.51,3.4-3.29,.73-3.95-.98-3.92-3.87,.09-12.65,.04-25.3,.04-37.95Z"/>
      <path class="cls-4" d="M155.89,179.65c0-12.16,.1-24.31-.06-36.46-.05-3.41,.89-4.59,4.48-4.66,5.19-.1,10.23,1.06,15.37,1.18,3.49,.08,3.14,2.77,3.15,5.09,.01,13.32,0,26.64,0,39.96,0,11.32-.06,22.65,.03,33.97,.03,3.92-1.07,5.36-5.37,4.45-3.84-.81-7.94-.44-11.92-.57-3.89-.13-5.91-1.43-5.79-6,.32-12.31,.11-24.64,.11-36.96Z"/>
      <path class="cls-4" d="M85.87,168.16c0,12.31-.16,24.63,.09,36.94,.09,4.43-1.75,5.2-5.41,4.27-.32-.08-.62-.25-.94-.33q-16.69-4.09-16.69-21.13c0-20.47-.01-40.93,0-61.4,0-5.18,.55-5.56,5.44-4.12,3.18,.94,6.35,1.93,9.55,2.78,9.56,2.54,7.85,1.44,7.94,10.54,.1,10.81,.02,21.63,.02,32.45Z"/>
      <path class="cls-4" d="M147.86,179.17c0,12.31-.1,24.63,.06,36.94,.04,3.38-.85,5.05-4.46,4.55-5.24-.73-10.49-1.32-15.72-2.12-2.74-.42-1.87-2.78-1.88-4.43-.07-11.98-.04-23.96-.04-35.94,0-12.98,.08-25.96-.05-38.93-.04-3.73,.7-5.05,4.87-3.96,4.11,1.08,8.52,1.31,12.8,1.3,3.56,0,4.52,1.25,4.47,4.66-.16,12.64-.07,25.29-.07,37.93Z"/>
      <path class="cls-4" d="M301.85,177.19c0,12.31-.06,24.62,.04,36.92,.02,2.92-.4,4.47-3.94,4.71-4.75,.32-9.4,1.75-14.24,1.89-3.14,.09-3.96-1.14-3.95-4.09,.08-25.11,.08-50.23,.01-75.34,0-2.62,.9-4.15,3.5-4.49,5.24-.68,10.48-1.31,15.73-1.95,3.3-.4,2.83,2,2.83,3.93,.02,12.81,.01,25.61,.01,38.42Z"/>
      <path class="cls-4" d="M248.85,180.91c0-12.32,.09-24.65-.06-36.97-.04-3.21,.9-4.54,4.24-4.34,4.31,.25,8.51-1.05,12.87-1.08,4-.02,5.08,1.2,5.05,5.12-.17,22.98-.08,45.96-.08,68.94,0,1.33-.34,2.79,.09,3.97,1.9,5.26-1.33,5.85-5.2,6.07-4.46,.25-8.92-.26-13.4,.8-3.36,.79-3.51-2.07-3.5-4.55,.01-12.66,0-25.31,0-37.97Z"/>
      <path class="cls-2" d="M363.82,163.61c0,12.13-.1,24.27,.06,36.4,.04,3.4-.92,5.08-4.47,5.78-4.86,.96-9.6,2.52-14.35,3.99-2.36,.73-3.3,.32-3.29-2.34,.06-25.76,.05-51.53,0-77.29,0-2.18,.64-3.17,2.92-3.7,4.99-1.16,9.95-2.56,14.81-4.2,3.62-1.22,4.36,.2,4.34,3.46-.09,12.63-.04,25.27-.03,37.9Z"/>
      <path class="cls-2" d="M54.91,159.5c0,12.13,.02,24.27,0,36.4-.01,5.2-.39,5.44-4.87,3.31-3.74-1.78-7.34-3.91-11.2-5.34-4.54-1.68-6.14-4.34-6.08-9.32,.28-23.27,.16-46.54,.09-69.81-.01-3.89-.09-6.4,4.99-3.41,4.23,2.49,9.1,3.97,13.79,5.6,2.69,.93,3.37,2.46,3.34,5.16-.14,12.46-.06,24.93-.06,37.4Z"/>
      <path class="cls-2" d="M372.77,159.11c0-11.98,.19-23.96-.11-35.93-.1-3.86,1.24-5.73,4.7-6.79,4.29-1.32,8.4-3.1,12.41-5.15,4.66-2.38,5.02-2.13,5.02,3.01,.02,20.63-.75,41.3,.31,61.87,.59,11.35-2.73,17.6-13.51,21.42-9.13,3.24-8.83,4.1-8.83-5.5,0-10.98,0-21.96,0-32.94Z"/>
      <path class="cls-2" d="M23.28,183.15c-5.27-4.09-9.23-8.98-9.29-15.67-.21-23.25-.08-46.51-.08-70.3,6.44,3.62,10.56,7.18,10.27,15.59-.76,21.74-.24,43.52-.29,65.29,0,1.57,.5,3.25-.61,5.1Z"/>
      <path class="cls-2" d="M403.77,183.56c0-13.79,0-26.73,0-39.68,0-12.16-.01-24.32,.01-36.48,0-2.67,6.02-9.15,8.5-9.23,1.94-.07,1.44,1.48,1.46,2.49,.07,3.66,.03,7.33,.03,10.99,0,17.49,0,34.98,0,52.47,0,8.66-2.2,13.15-10.01,19.44Z"/>
    </g>
  </g>
</svg>