<?xml version="1.0" encoding="UTF-8"?>
<svg id="Layer_2" data-name="Layer 2" xmlns="http://www.w3.org/2000/svg" viewBox="0 0 427.69 379.39">
  <defs>
    <style>
      .cls-1 {
        fill: #68717f;
      }

      .cls-2 {
        fill: #15181d;
      }

      .cls-3 {
        fill: #31353e;
      }

      .cls-4 {
        fill: #454c56;
      }
    </style>
  </defs>
  <g id="Layer_1-2" data-name="Layer 1">
    <g>
      <path class="cls-2" d="M427.4,190.39c0,16.82,.72,33.68-.16,50.45-1.46,27.64-13.72,50.8-32.39,70.7-26.78,28.54-60.32,45.83-97.48,56.06-64.68,17.8-128.83,15.79-191.7-8.42-32.37-12.47-60.82-30.88-82.17-58.88C7.95,279.92-.1,256.98,.11,231.16c.22-26.48,.57-52.98-.07-79.45C-.84,115.46,13.45,86.05,39.07,61.57c28.84-27.56,63.86-43.66,102.2-52.7,61.42-14.48,122-11.59,181.08,11.37,32.34,12.56,60.78,30.96,82.1,59,15.4,20.27,23.47,43.07,23.24,68.69-.12,14.16-.02,28.31-.02,42.47-.09,0-.18,0-.27,0Zm-44.52,23.79c2.81-1.46,4.03-4.37,5.93-6.64,17.16-20.53,26.69-43.54,24.16-70.96-2.02-21.84-11.47-40.11-25.55-56.12-20.57-23.4-46.69-38.77-75.66-49.36-37.12-13.56-75.46-18.47-114.97-16.2-25.9,1.49-51.01,6.11-75.51,14.32-19.48,6.52-37.77,15.49-54.41,27.65-20.38,14.36-36.88,31.97-46.25,55.48-8.15,20.45-8.5,41.08-1.25,61.89,5.36,15.4,14.26,28.59,25.54,40.09,23.28,23.74,51.87,38.74,83.26,48.54,36.33,11.35,73.58,14.47,111.46,11.42,27.22-2.19,53.57-7.95,78.88-18.24,24.13-9.82,46.13-22.97,64.38-41.87Zm-173.07,113.11c0-10.64-.26-21.29,.11-31.92,.18-5.21-1.7-6.75-6.61-6.38-3.95,.3-8.05,.35-11.91-.39-3.61-.69-4.55,.48-4.55,3.67,.02,22.78,.02,45.56-.02,68.33,0,2.16,.56,3.21,3.01,3.52,5.11,.65,10.22,.79,15.35,1,3.88,.16,4.75-1.32,4.69-4.92-.2-10.97-.07-21.95-.07-32.92Zm8.03-.41c0,11.16,.15,22.32-.08,33.48-.08,3.82,1.19,4.86,4.86,4.76,5.15-.13,10.26-.46,15.38-1.01,2.63-.28,2.84-1.69,2.82-3.69-.04-4.33,0-8.66,0-12.99,0-17.99,0-35.98,.01-53.97,0-2.41,.09-5.42-3.19-4.91-4.83,.75-9.63,.24-14.43,.55-3.61,.24-5.61,1.44-5.47,5.8,.34,10.65,.11,21.32,.11,31.98Zm31-2.63c0,11.3,.06,22.61-.03,33.91-.03,3.92,1.1,5.49,5.36,4.36,4.45-1.18,9.06-1.87,13.65-2.34,2.99-.31,3.99-1.57,3.99-4.43-.05-22.27-.08-44.55,.03-66.82,.01-3.12-1.15-4.27-4.1-3.87-4.91,.66-9.8,1.66-14.72,1.9-3.27,.16-4.27,1.17-4.22,4.39,.16,10.97,.06,21.94,.06,32.91Zm-131.99-13.27c0-10.99-.11-21.99,.07-32.98,.05-3.24-1.23-4.83-4.15-5.84-5.02-1.74-10.08-3.45-14.87-5.71-3.87-1.83-4.05-.19-4.04,2.96,.08,17.32,.04,34.65,.04,51.98q0,18.56,17.32,25.29c5.25,2.04,5.62,1.81,5.63-3.72,.02-10.66,0-21.32,0-31.99Zm193.95,0c0,11.14,.03,22.27-.02,33.41-.01,2.66,.34,4.17,3.68,2.96,5.95-2.17,11.61-4.91,17.25-7.72,1.54-.77,2.09-1.9,2.08-3.58-.03-22.6-.04-45.21,0-67.81,0-2.62-.76-3.17-3.24-2.12-5.03,2.13-10.1,4.21-15.29,5.9-3.44,1.12-4.6,2.99-4.53,6.55,.2,10.8,.07,21.61,.07,32.41Zm31-13.59c0,10.98,.02,21.96-.02,32.94,0,2.73,.12,4.36,3.46,2.14,5.24-3.47,10.76-6.53,16.14-9.79,2.69-1.63,3.46-4.04,3.44-7.17-.12-20.79-.06-41.59-.06-62.38,0-.83,0-1.66-.01-2.5-.04-2.17-.86-2.75-2.71-1.37-5.22,3.89-11.06,6.72-16.77,9.76-2.7,1.44-3.57,3.41-3.52,6.43,.16,10.64,.06,21.29,.06,31.94Zm-162.98,27.5c0-11.14,.03-22.27-.03-33.41,0-1.64,.82-3.94-1.99-4.32-5.4-.74-10.8-1.41-16.21-2.1-2.76-.35-3.83,.79-3.82,3.65,.08,22.6,.07,45.21,0,67.81,0,2.55,.96,3.3,3.42,3.7,4.23,.68,8.42,1.56,12.7,2.09,5.69,.7,5.9,.77,5.92-5,.02-10.8,0-21.61,0-32.41Zm100.99-4.83c0,11.32,.11,22.65-.06,33.96-.05,3.37,.9,3.97,4,2.96,4.72-1.53,9.55-2.74,14.36-3.95,2.36-.6,3.77-1.55,3.77-4.34-.07-22.81-.06-45.62-.01-68.43,0-2.6-.84-3.08-3.28-2.38-4.94,1.41-9.92,2.72-14.96,3.67-3.11,.59-3.92,2.03-3.88,5.05,.17,11.15,.07,22.31,.07,33.47Zm-131.96,.03c0-11.32-.06-22.63,.04-33.95,.02-2.54-.54-3.87-3.33-4.41-5.03-.97-10-2.35-14.93-3.75-2.64-.75-3.88-.6-3.87,2.71,.11,22.63,.09,45.26,.02,67.89,0,2.22,.78,3.33,2.87,3.9,5.11,1.41,10.22,2.81,15.25,4.48,3.06,1.02,4.07,.47,4.02-2.94-.17-11.31-.07-22.63-.07-33.95Zm-61.99-22.55c0-10.64-.15-21.28,.09-31.91,.07-3.31-1.08-5.25-3.81-6.78-4.77-2.67-9.86-4.77-14.25-8.13-3.22-2.45-4.09-1.1-4.08,2.45,.09,21.28,.07,42.55,0,63.83,0,2.57,.64,4.3,2.99,5.7,4.97,2.96,9.76,6.24,14.61,9.39,1.1,.71,2.26,1.96,3.52,1.4,1.71-.77,.88-2.66,.89-4.04,.07-10.64,.04-21.28,.03-31.91Zm-52.98-74.54c0,22.29,0,43.56,.01,64.83,0,1.93,1.02,3.46,2.2,4.91,4.84,5.94,10.17,11.42,15.68,16.73,.92,.89,1.74,2.51,3.14,2.09,1.64-.49,.95-2.28,.96-3.51,.04-20.98,.02-41.97,.05-62.95,0-1.92-.35-3.35-2-4.72-6.49-5.41-12.78-11.05-20.03-17.37Zm361.9-.44c-6.72,7-13.28,12.03-19.48,17.48-1.38,1.21-2.57,2.49-2.56,4.61,.04,21.46,.02,42.92,.03,64.38,0,.95-.28,2.21,.94,2.55,1.08,.31,1.76-.72,2.45-1.4,4.12-4.11,8.58-7.96,12.21-12.47,2.5-3.1,6.4-5.61,6.4-10.33,0-21.11,0-42.21,0-64.81Zm8.97,51.7c13.4-25.07,9.37-50.84,10.05-77.36-3.25,4.94-5.72,8.82-8.33,12.59-1.08,1.56-1.76,3.07-1.75,5.04,.06,19.48,.03,38.96,.03,59.73Zm-379.87-2.25c0-19.42,.02-38.83-.05-58.25,0-1.26-.37-2.71-1.06-3.75-2.69-4.06-5.58-8-9.05-12.92,1.12,26-3.51,51.55,10.15,74.92Z"/>
      <path class="cls-4" d="M66.87,56.88c16.64-12.16,34.93-21.13,54.41-27.65,24.5-8.21,49.61-12.83,75.51-14.32,39.51-2.27,77.85,2.64,114.97,16.2,28.97,10.58,55.09,25.96,75.66,49.36,14.08,16.01,23.53,34.29,25.55,56.12,2.53,27.42-7,50.43-24.16,70.96-1.9,2.27-3.12,5.18-5.93,6.64-1.34-1.84-2.25-.17-3.27,.42-21.37,12.47-44,21.72-68.17,27.18-18.79,4.24-37.74,6.71-57.02,7.64-9.5,.46-18.86-.27-28.27-.44-8.42-.16-16.89-.92-25.23-2.17-18.71-2.79-37.09-7.1-54.85-13.79-32.58-12.26-61.53-29.68-82.88-58.03-11.08-14.71-17.66-31.2-19.16-49.43-1.66-20.18,4.03-38.69,14.45-55.97,2.64-4.37,7.08-7.52,8.39-12.72Z"/>
      <path class="cls-1" d="M66.87,56.88c-1.3,5.2-5.75,8.35-8.39,12.72-10.42,17.28-16.11,35.79-14.45,55.97,1.5,18.22,8.08,34.72,19.16,49.43,21.36,28.36,50.3,45.77,82.88,58.03,17.76,6.68,36.14,10.99,54.85,13.79,8.34,1.24,16.8,2.01,25.23,2.17,9.41,.18,18.77,.9,28.27,.44,19.29-.93,38.23-3.4,57.02-7.64,24.17-5.46,46.8-14.71,68.17-27.18,1.02-.59,1.93-2.26,3.27-.42-18.25,18.9-40.25,32.06-64.38,41.87-25.3,10.29-51.65,16.05-78.88,18.24-37.89,3.05-75.14-.07-111.46-11.42-31.39-9.81-59.97-24.81-83.26-48.54-11.28-11.5-20.18-24.69-25.54-40.09-7.25-20.81-6.89-41.44,1.25-61.89,9.37-23.51,25.87-41.13,46.25-55.48Z"/>
      <path class="cls-3" d="M209.81,327.29c0,10.97-.13,21.95,.07,32.92,.07,3.59-.8,5.08-4.69,4.92-5.13-.21-10.24-.35-15.35-1-2.45-.31-3.01-1.36-3.01-3.52,.04-22.78,.03-45.56,.02-68.33,0-3.19,.95-4.36,4.55-3.67,3.86,.74,7.96,.69,11.91,.39,4.92-.37,6.8,1.16,6.61,6.38-.37,10.63-.11,21.28-.11,31.92Z"/>
      <path class="cls-3" d="M217.85,326.88c0-10.66,.23-21.33-.11-31.98-.14-4.36,1.86-5.56,5.47-5.8,4.8-.32,9.59,.2,14.43-.55,3.29-.51,3.2,2.5,3.19,4.91-.02,17.99-.01,35.98-.01,53.97,0,4.33-.03,8.66,0,12.99,.02,2-.2,3.41-2.82,3.69-5.12,.55-10.23,.87-15.38,1.01-3.67,.1-4.94-.95-4.86-4.76,.24-11.16,.08-22.32,.08-33.48Z"/>
      <path class="cls-3" d="M248.85,324.25c0-10.97,.1-21.94-.06-32.91-.05-3.22,.96-4.23,4.22-4.39,4.93-.24,9.81-1.24,14.72-1.9,2.95-.4,4.11,.75,4.1,3.87-.1,22.27-.08,44.55-.03,66.82,0,2.86-.99,4.12-3.99,4.43-4.59,.47-9.2,1.17-13.65,2.34-4.27,1.13-5.4-.44-5.36-4.36,.09-11.3,.03-22.61,.03-33.91Z"/>
      <path class="cls-3" d="M116.86,310.98c0,10.66,.01,21.32,0,31.99,0,5.52-.38,5.76-5.63,3.72q-17.32-6.73-17.32-25.29c0-17.33,.04-34.65-.04-51.98-.01-3.15,.16-4.79,4.04-2.96,4.79,2.26,9.85,3.97,14.87,5.71,2.92,1.01,4.2,2.6,4.15,5.84-.17,10.99-.07,21.99-.07,32.98Z"/>
      <path class="cls-3" d="M310.8,310.99c0-10.8,.13-21.61-.07-32.41-.07-3.57,1.1-5.43,4.53-6.55,5.19-1.69,10.26-3.77,15.29-5.9,2.49-1.06,3.25-.51,3.24,2.12-.04,22.6-.03,45.21,0,67.81,0,1.69-.54,2.82-2.08,3.58-5.64,2.81-11.31,5.55-17.25,7.72-3.34,1.22-3.69-.3-3.68-2.96,.04-11.14,.02-22.27,.02-33.41Z"/>
      <path class="cls-3" d="M341.81,297.4c0-10.65,.1-21.29-.06-31.94-.05-3.02,.82-4.99,3.52-6.43,5.71-3.04,11.55-5.87,16.77-9.76,1.86-1.39,2.68-.8,2.71,1.37,.01,.83,.01,1.66,.01,2.5,0,20.79-.06,41.59,.06,62.38,.02,3.14-.75,5.54-3.44,7.17-5.38,3.26-10.9,6.32-16.14,9.79-3.34,2.21-3.46,.58-3.46-2.14,.04-10.98,.02-21.96,.02-32.94Z"/>
      <path class="cls-3" d="M178.83,324.89c0,10.8,.02,21.61,0,32.41-.01,5.77-.23,5.71-5.92,5-4.28-.53-8.47-1.41-12.7-2.09-2.46-.39-3.43-1.15-3.42-3.7,.07-22.6,.07-45.21,0-67.81,0-2.85,1.06-4,3.82-3.65,5.4,.69,10.81,1.36,16.21,2.1,2.81,.38,1.98,2.68,1.99,4.32,.06,11.14,.03,22.27,.03,33.41Z"/>
      <path class="cls-3" d="M279.81,320.07c0-11.16,.1-22.31-.07-33.47-.05-3.02,.76-4.46,3.88-5.05,5.04-.95,10.02-2.26,14.96-3.67,2.45-.7,3.29-.21,3.28,2.38-.05,22.81-.06,45.62,.01,68.43,0,2.79-1.4,3.74-3.77,4.34-4.81,1.21-9.64,2.42-14.36,3.95-3.1,1.01-4.06,.41-4-2.96,.17-11.32,.06-22.64,.06-33.96Z"/>
      <path class="cls-3" d="M147.86,320.1c0,11.32-.11,22.63,.07,33.95,.05,3.41-.96,3.95-4.02,2.94-5.02-1.67-10.14-3.07-15.25-4.48-2.09-.58-2.88-1.69-2.87-3.9,.07-22.63,.09-45.26-.02-67.89-.02-3.31,1.22-3.46,3.87-2.71,4.94,1.4,9.9,2.78,14.93,3.75,2.79,.54,3.36,1.87,3.33,4.41-.1,11.31-.04,22.63-.04,33.95Z"/>
      <path class="cls-3" d="M85.87,297.54c0,10.64,.03,21.28-.04,31.91,0,1.38,.82,3.27-.89,4.04-1.27,.57-2.43-.68-3.52-1.4-4.86-3.15-9.64-6.44-14.61-9.39-2.35-1.4-3-3.13-2.99-5.7,.07-21.28,.09-42.55,0-63.83-.01-3.56,.86-4.91,4.08-2.45,4.39,3.35,9.49,5.45,14.25,8.13,2.73,1.53,3.88,3.47,3.81,6.78-.24,10.63-.09,21.27-.09,31.91Z"/>
      <path class="cls-3" d="M32.89,223c7.25,6.32,13.55,11.96,20.03,17.37,1.65,1.38,2.01,2.81,2,4.72-.03,20.98,0,41.97-.05,62.95,0,1.23,.68,3.02-.96,3.51-1.41,.42-2.22-1.2-3.14-2.09-5.51-5.31-10.84-10.78-15.68-16.73-1.18-1.45-2.2-2.98-2.2-4.91-.02-21.27-.01-42.54-.01-64.83Z"/>
      <path class="cls-3" d="M394.79,222.57c0,22.6,0,43.71,0,64.81,0,4.72-3.9,7.23-6.4,10.33-3.64,4.51-8.09,8.36-12.21,12.47-.69,.68-1.37,1.71-2.45,1.4-1.22-.35-.94-1.61-.94-2.55-.01-21.46,.01-42.92-.03-64.38,0-2.11,1.18-3.39,2.56-4.61,6.2-5.45,12.76-10.48,19.48-17.48Z"/>
      <path class="cls-3" d="M403.77,274.27c0-20.77,.02-40.25-.03-59.73,0-1.96,.67-3.48,1.75-5.04,2.61-3.78,5.08-7.65,8.33-12.59-.68,26.52,3.35,52.29-10.05,77.36Z"/>
      <path class="cls-3" d="M23.9,272.02c-13.66-23.37-9.04-48.91-10.15-74.92,3.47,4.92,6.36,8.85,9.05,12.92,.69,1.04,1.06,2.49,1.06,3.75,.06,19.42,.05,38.83,.05,58.25Z"/>
    </g>
  </g>
</svg>